<?xml version="1.0" encoding="UTF-8"?>
<!DOCTYPE svg PUBLIC "-//W3C//DTD SVG 1.1//EN" "http://www.w3.org/Graphics/SVG/1.1/DTD/svg11.dtd">
<svg xmlns="http://www.w3.org/2000/svg" version="1.1" width="1024px" height="1024px" style="shape-rendering:geometricPrecision; text-rendering:geometricPrecision; image-rendering:optimizeQuality; fill-rule:evenodd; clip-rule:evenodd" xmlns:xlink="http://www.w3.org/1999/xlink">
<g><path style="opacity:0.978" fill="#001752" d="M 473.5,-0.5 C 500.833,-0.5 528.167,-0.5 555.5,-0.5C 648.551,7.97886 732.884,39.1455 808.5,93C 937.186,187.638 1008.85,314.804 1023.5,474.5C 1023.5,499.167 1023.5,523.833 1023.5,548.5C 1006.09,723.229 923.758,857.395 776.5,951C 706.225,992.123 630.225,1016.29 548.5,1023.5C 524.167,1023.5 499.833,1023.5 475.5,1023.5C 312.776,1008.08 183.942,934.417 89,802.5C 46.5662,740.227 18.8995,671.56 6,596.5C 3.60011,578.716 1.43344,561.049 -0.5,543.5C -0.5,521.833 -0.5,500.167 -0.5,478.5C 14.4182,309.112 91.7515,176.612 231.5,81C 305.034,33.787 385.701,6.62034 473.5,-0.5 Z"/></g>
<g><path style="opacity:1" fill="#749afd" d="M 629.5,50.5 C 631.515,51.9238 633.848,52.5905 636.5,52.5C 763.69,90.195 860.523,166.528 927,281.5C 948.429,320.827 963.929,362.494 973.5,406.5C 973.676,409.727 974.343,412.727 975.5,415.5C 979.111,430.572 981.445,445.905 982.5,461.5C 982.578,468.7 983.245,475.7 984.5,482.5C 986.297,511.605 985.297,540.605 981.5,569.5C 980.028,573.919 979.362,578.586 979.5,583.5C 978.781,585.764 978.448,588.097 978.5,590.5C 976.989,593.544 976.322,596.878 976.5,600.5C 976.483,602.565 976.15,604.565 975.5,606.5C 973.882,609.171 973.215,612.171 973.5,615.5C 938.157,757.979 855.824,864.146 726.5,934C 707.872,943.257 688.872,951.424 669.5,958.5C 667.102,958.259 665.102,958.926 663.5,960.5C 648.13,965.844 632.464,970.178 616.5,973.5C 613.848,973.41 611.515,974.076 609.5,975.5C 565.657,984.681 521.324,987.847 476.5,985C 458.99,984.025 441.657,981.858 424.5,978.5C 421.727,977.343 418.727,976.676 415.5,976.5C 272.854,944.763 165.354,865.43 93,738.5C 82.0384,716.892 72.0384,694.892 63,672.5C 60.7242,664.074 58.2242,655.741 55.5,647.5C 55.5905,644.848 54.9238,642.515 53.5,640.5C 49.9387,626.405 46.6054,612.405 43.5,598.5C 43.7489,594.542 43.0823,590.876 41.5,587.5C 32.1991,533.231 32.1991,478.897 41.5,424.5C 43.2227,422.22 43.8893,419.553 43.5,416.5C 69.1775,299.984 129.177,205.151 223.5,132C 280.909,87.9707 345.243,58.4707 416.5,43.5C 420.122,43.678 423.456,43.0114 426.5,41.5C 427.167,41.5 427.833,41.5 428.5,41.5C 432.705,41.2833 436.705,40.6167 440.5,39.5C 504.398,29.7872 567.398,33.4539 629.5,50.5 Z"/></g>
<g><path style="opacity:1" fill="#3f62d0" d="M 440.5,39.5 C 436.705,40.6167 432.705,41.2833 428.5,41.5C 432.21,39.8643 436.21,39.1977 440.5,39.5 Z"/></g>
<g><path style="opacity:1" fill="#2b4fb9" d="M 426.5,41.5 C 423.456,43.0114 420.122,43.678 416.5,43.5C 419.544,41.9886 422.878,41.322 426.5,41.5 Z"/></g>
<g><path style="opacity:1" fill="#2d52bd" d="M 629.5,50.5 C 632.152,50.4095 634.485,51.0762 636.5,52.5C 633.848,52.5905 631.515,51.9238 629.5,50.5 Z"/></g>
<g><path style="opacity:1" fill="#001752" d="M 551.5,59.5 C 557.605,60.9965 563.938,61.6631 570.5,61.5C 573.096,62.2653 575.763,62.5987 578.5,62.5C 582.236,63.9891 586.236,64.6558 590.5,64.5C 592.764,65.2186 595.097,65.552 597.5,65.5C 600.171,67.1181 603.171,67.7847 606.5,67.5C 673.103,81.6202 733.103,109.454 786.5,151C 845.745,198.558 891.912,256.392 925,324.5C 937.238,350.779 946.405,378.112 952.5,406.5C 952.42,409.781 953.087,412.781 954.5,415.5C 954.629,417.216 954.962,418.883 955.5,420.5C 955.43,424.425 956.097,428.091 957.5,431.5C 966.282,489.683 965.282,547.683 954.5,605.5C 953.076,607.515 952.41,609.848 952.5,612.5C 931.65,704.036 886.65,781.536 817.5,845C 760.414,897.869 694.081,933.702 618.5,952.5C 615.848,952.41 613.515,953.076 611.5,954.5C 553.767,966.61 495.767,968.276 437.5,959.5C 434.091,958.097 430.425,957.43 426.5,957.5C 423.794,957.425 421.127,957.092 418.5,956.5C 416.162,954.96 413.495,954.294 410.5,954.5C 408.784,954.371 407.117,954.038 405.5,953.5C 403.162,951.96 400.495,951.294 397.5,951.5C 311.631,929.968 238.464,886.635 178,821.5C 134.011,773.858 101.011,719.524 79,658.5C 73.4452,640.339 68.6119,622.006 64.5,603.5C 64.678,599.878 64.0114,596.544 62.5,593.5C 62.552,591.097 62.2186,588.764 61.5,586.5C 61.6382,581.586 60.9715,576.919 59.5,572.5C 44.9411,457.473 69.1078,352.139 132,256.5C 189.464,175.67 264.297,117.504 356.5,82C 379.048,74.6803 402.048,68.847 425.5,64.5C 429.79,64.8023 433.79,64.1357 437.5,62.5C 438.167,62.5 438.833,62.5 439.5,62.5C 445.389,62.5503 451.056,61.8836 456.5,60.5C 488.069,56.8357 519.736,56.5024 551.5,59.5 Z"/></g>
<g><path style="opacity:1" fill="#2e4fba" d="M 551.5,59.5 C 558.082,59.1561 564.416,59.8228 570.5,61.5C 563.938,61.6631 557.605,60.9965 551.5,59.5 Z"/></g>
<g><path style="opacity:1" fill="#0d2d83" d="M 456.5,60.5 C 451.056,61.8836 445.389,62.5503 439.5,62.5C 444.916,60.8827 450.583,60.216 456.5,60.5 Z"/></g>
<g><path style="opacity:1" fill="#3053bb" d="M 437.5,62.5 C 433.79,64.1357 429.79,64.8023 425.5,64.5C 429.236,63.0109 433.236,62.3442 437.5,62.5 Z"/></g>
<g><path style="opacity:1" fill="#2f51b8" d="M 578.5,62.5 C 582.733,62.5387 586.733,63.2053 590.5,64.5C 586.236,64.6558 582.236,63.9891 578.5,62.5 Z"/></g>
<g><path style="opacity:1" fill="#2749b0" d="M 597.5,65.5 C 600.727,65.6761 603.727,66.3428 606.5,67.5C 603.171,67.7847 600.171,67.1181 597.5,65.5 Z"/></g>
<g><path style="opacity:1" fill="#769cfe" d="M 604.5,119.5 C 604.168,129.19 604.502,138.856 605.5,148.5C 606.107,148.376 606.44,148.043 606.5,147.5C 613.464,146.447 620.464,146.28 627.5,147C 637.618,149.965 647.952,151.965 658.5,153C 662.09,154.53 665.757,155.864 669.5,157C 692.96,176.124 716.126,195.624 739,215.5C 739.333,219.167 739.667,222.833 740,226.5C 743,228.833 746,231.167 749,233.5C 749.667,236.833 749.667,240.167 749,243.5C 745.185,247.693 744.852,252.026 748,256.5C 749.165,260.684 747.665,263.517 743.5,265C 733.39,266.187 724.39,263.52 716.5,257C 715.5,256.333 714.5,256.333 713.5,257C 712.167,259.333 710.833,261.667 709.5,264C 702.962,264.352 697.795,267.185 694,272.5C 688.061,284.044 682.394,295.711 677,307.5C 676.21,310.634 676.543,313.634 678,316.5C 696.377,329.21 711.71,344.876 724,363.5C 726.944,367.278 727.277,371.278 725,375.5C 716.106,392.956 706.44,409.956 696,426.5C 685.593,435.568 673.76,442.068 660.5,446C 657.333,447.833 654.833,450.333 653,453.5C 626.353,496.796 602.353,541.463 581,587.5C 559.006,621.816 539.339,657.482 522,694.5C 502.811,728.211 484.144,762.211 466,796.5C 463.582,806.389 464.248,816.056 468,825.5C 469.516,834.945 468.182,843.945 464,852.5C 456.588,866.992 448.921,881.326 441,895.5C 439.167,898.667 436.667,901.167 433.5,903C 416.447,903.452 399.78,901.118 383.5,896C 343.145,876.659 304.145,854.992 266.5,831C 255.929,822.761 247.096,812.928 240,801.5C 236.456,793.979 236.79,786.646 241,779.5C 250.747,763.603 259.747,747.27 268,730.5C 274.337,722.747 282.504,718.247 292.5,717C 295.603,715.561 298.436,713.727 301,711.5C 313.707,688.586 326.54,665.752 339.5,643C 334.167,639 328.833,635 323.5,631C 310.926,618.43 299.093,605.263 288,591.5C 287.333,588.5 287.333,585.5 288,582.5C 297.496,563.014 307.83,544.014 319,525.5C 363.412,441.675 408.079,358.008 453,274.5C 453.706,272.029 453.373,269.695 452,267.5C 433.862,249.417 427.196,227.75 432,202.5C 443.614,154.385 470.447,117.552 512.5,92C 534.705,78.1746 558.039,75.8413 582.5,85C 594.254,93.6745 601.588,105.174 604.5,119.5 Z"/></g>
<g><path style="opacity:1" fill="#001752" d="M 554.5,94.5 C 574.756,90.6157 587.256,98.6157 592,118.5C 593.498,128.455 593.831,138.455 593,148.5C 591.136,159.046 585.636,167.213 576.5,173C 541.473,199.182 506.806,225.849 472.5,253C 461.55,257.968 453.383,254.801 448,243.5C 446.47,235.564 446.137,227.564 447,219.5C 453.966,178.739 473.466,145.239 505.5,119C 520.288,107.606 536.622,99.4392 554.5,94.5 Z"/></g>
<g><path style="opacity:1" fill="#2a468f" d="M 604.5,119.5 C 605.167,128.833 605.833,138.167 606.5,147.5C 606.44,148.043 606.107,148.376 605.5,148.5C 604.502,138.856 604.168,129.19 604.5,119.5 Z"/></g>
<g><path style="opacity:1" fill="#081f5d" d="M 571.5,250.5 C 572.5,250.5 573.5,250.5 574.5,250.5C 574.558,257.093 571.391,260.76 565,261.5C 560.654,260.602 556.487,259.268 552.5,257.5C 558.977,255.307 565.311,252.974 571.5,250.5 Z"/></g>
<g><path style="opacity:1" fill="#001753" d="M 518.5,267.5 C 520.028,267.517 520.528,268.184 520,269.5C 510.562,287.479 500.562,305.146 490,322.5C 489.075,326.445 488.575,330.445 488.5,334.5C 489.061,342.306 490.395,349.972 492.5,357.5C 491.647,361.563 490.48,365.563 489,369.5C 440.556,456.719 392.89,544.385 346,632.5C 344.612,633.554 343.112,633.72 341.5,633C 332.629,623.798 324.129,614.298 316,604.5C 314.632,601.262 314.299,597.928 315,594.5C 321.533,579.101 328.866,564.101 337,549.5C 386.573,461.36 435.906,373.027 485,284.5C 486.5,283 488,281.5 489.5,280C 499.144,275.517 508.811,271.35 518.5,267.5 Z"/></g>
<g><path style="opacity:1" fill="#3053bc" d="M 952.5,406.5 C 954.118,409.171 954.785,412.171 954.5,415.5C 953.087,412.781 952.42,409.781 952.5,406.5 Z"/></g>
<g><path style="opacity:1" fill="#2549ae" d="M 973.5,406.5 C 975.118,409.171 975.785,412.171 975.5,415.5C 974.343,412.727 973.676,409.727 973.5,406.5 Z"/></g>
<g><path style="opacity:1" fill="#031b58" d="M 477.5,417.5 C 478.79,418.058 479.623,419.058 480,420.5C 481.144,433.732 477.477,445.398 469,455.5C 465.908,458.422 462.408,460.755 458.5,462.5C 457.548,458.839 457.715,455.172 459,451.5C 463.357,439.115 469.524,427.782 477.5,417.5 Z"/></g>
<g><path style="opacity:1" fill="#2544a0" d="M 43.5,416.5 C 43.8893,419.553 43.2227,422.22 41.5,424.5C 41.5651,421.572 42.2318,418.905 43.5,416.5 Z"/></g>
<g><path style="opacity:1" fill="#3557c0" d="M 955.5,420.5 C 957.082,423.876 957.749,427.542 957.5,431.5C 956.097,428.091 955.43,424.425 955.5,420.5 Z"/></g>
<g><path style="opacity:1" fill="#1d3a95" d="M 982.5,461.5 C 984.075,468.27 984.741,475.27 984.5,482.5C 983.245,475.7 982.578,468.7 982.5,461.5 Z"/></g>
<g><path style="opacity:1" fill="#031b57" d="M 611.5,489.5 C 610.21,503.475 604.71,515.808 595,526.5C 594.629,511.413 600.129,499.08 611.5,489.5 Z"/></g>
<g><path style="opacity:1" fill="#031b57" d="M 422.5,520.5 C 425.741,538.916 419.741,554.083 404.5,566C 402.254,567.039 400.087,568.206 398,569.5C 400.041,557.397 404.374,546.064 411,535.5C 414.842,530.47 418.675,525.47 422.5,520.5 Z"/></g>
<g><path style="opacity:1" fill="#2e50b6" d="M 981.5,569.5 C 981.877,574.453 981.211,579.119 979.5,583.5C 979.362,578.586 980.028,573.919 981.5,569.5 Z"/></g>
<g><path style="opacity:1" fill="#2a4cb2" d="M 59.5,572.5 C 60.9715,576.919 61.6382,581.586 61.5,586.5C 59.7895,582.119 59.1228,577.453 59.5,572.5 Z"/></g>
<g><path style="opacity:1" fill="#3052b9" d="M 41.5,587.5 C 43.0823,590.876 43.7489,594.542 43.5,598.5C 42.0966,595.091 41.4299,591.425 41.5,587.5 Z"/></g>
<g><path style="opacity:1" fill="#3256be" d="M 978.5,590.5 C 978.678,594.122 978.011,597.456 976.5,600.5C 976.322,596.878 976.989,593.544 978.5,590.5 Z"/></g>
<g><path style="opacity:1" fill="#051d5a" d="M 554.5,596.5 C 552.339,610.811 545.839,623.144 535,633.5C 536.758,618.65 543.258,606.316 554.5,596.5 Z"/></g>
<g><path style="opacity:1" fill="#2a4db3" d="M 62.5,593.5 C 64.0114,596.544 64.678,599.878 64.5,603.5C 62.9886,600.456 62.322,597.122 62.5,593.5 Z"/></g>
<g><path style="opacity:1" fill="#2849aa" d="M 954.5,605.5 C 954.829,608.228 954.163,610.562 952.5,612.5C 952.41,609.848 953.076,607.515 954.5,605.5 Z"/></g>
<g><path style="opacity:1" fill="#3053bb" d="M 975.5,606.5 C 975.58,609.781 974.913,612.781 973.5,615.5C 973.215,612.171 973.882,609.171 975.5,606.5 Z"/></g>
<g><path style="opacity:1" fill="#031b57" d="M 365.5,626.5 C 368.767,647.186 360.767,662.519 341.5,672.5C 341.167,672.167 340.833,671.833 340.5,671.5C 345.459,654.579 353.792,639.579 365.5,626.5 Z"/></g>
<g><path style="opacity:1" fill="#3054c0" d="M 53.5,640.5 C 54.9238,642.515 55.5905,644.848 55.5,647.5C 54.0762,645.485 53.4095,643.152 53.5,640.5 Z"/></g>
<g><path style="opacity:1" fill="#061d5a" d="M 493.5,707.5 C 493.487,714.074 491.654,720.407 488,726.5C 474.217,747.445 471.884,746.111 481,722.5C 484.684,716.993 488.851,711.993 493.5,707.5 Z"/></g>
<g><path style="opacity:1" fill="#16399a" d="M 397.5,951.5 C 400.495,951.294 403.162,951.96 405.5,953.5C 402.505,953.706 399.838,953.04 397.5,951.5 Z"/></g>
<g><path style="opacity:1" fill="#3b5fcc" d="M 618.5,952.5 C 616.562,954.163 614.228,954.829 611.5,954.5C 613.515,953.076 615.848,952.41 618.5,952.5 Z"/></g>
<g><path style="opacity:1" fill="#1d40a0" d="M 410.5,954.5 C 413.495,954.294 416.162,954.96 418.5,956.5C 415.572,956.435 412.905,955.768 410.5,954.5 Z"/></g>
<g><path style="opacity:1" fill="#1b3c9c" d="M 426.5,957.5 C 430.425,957.43 434.091,958.097 437.5,959.5C 433.542,959.749 429.876,959.082 426.5,957.5 Z"/></g>
<g><path style="opacity:1" fill="#2042a4" d="M 669.5,958.5 C 667.898,960.074 665.898,960.741 663.5,960.5C 665.102,958.926 667.102,958.259 669.5,958.5 Z"/></g>
<g><path style="opacity:1" fill="#2144a6" d="M 616.5,973.5 C 614.562,975.163 612.228,975.829 609.5,975.5C 611.515,974.076 613.848,973.41 616.5,973.5 Z"/></g>
<g><path style="opacity:1" fill="#1e40a2" d="M 415.5,976.5 C 418.727,976.676 421.727,977.343 424.5,978.5C 421.171,978.785 418.171,978.118 415.5,976.5 Z"/></g>
</svg>
